<svg width="24" height="24" viewBox="0 0 24 24" fill="none" xmlns="http://www.w3.org/2000/svg">
  <rect width="24" height="24" rx="12" fill="#4F46E5"/>
  <path d="M19.9931 10.9369C19.9931 10.9369 20.0931 11.9432 19.0868 11.9432C18.0805 11.9432 14.6742 12.9494 13.6679 13.9557C12.6616 14.962 11.1522 18.3683 11.1522 18.3683M19.9931 10.9369L17.9805 8.92434M19.9931 10.9369L18.9868 15.9683" stroke="white" stroke-width="1.5" stroke-linecap="round" stroke-linejoin="round"/>
  <path d="M8.3273 7.61814C7.82394 8.12149 4.9209 10.522 4.9209 10.522C4.9209 10.522 4.41755 11.0253 5.42383 11.5287C6.43012 12.032 11.4615 14.9351 11.4615 14.9351C11.4615 14.9351 12.4678 15.4384 12.9711 14.4321C13.4745 13.4258 15.3854 8.29765 15.3854 8.29765C15.3854 8.29765 15.8888 7.29137 14.8825 6.78801C13.8762 6.28466 8.8308 4.21508 8.8308 4.21508C8.8308 4.21508 7.82452 3.71172 7.32116 4.71801C6.8178 5.7243 5.25659 9.90936 5.25659 9.90936" stroke="white" stroke-width="1.5" stroke-linecap="round" stroke-linejoin="round"/>
</svg>